<svg id="Group_195" data-name="Group 195" xmlns="http://www.w3.org/2000/svg" width="274.06" height="75.002" viewBox="0 0 274.06 75.002">
  <path id="Path_21" data-name="Path 21" d="M232.75,62.52a1.869,1.869,0,0,1,.151-.7,2.255,2.255,0,0,1,.421-.637,2.153,2.153,0,0,1,1.554-.658,2.371,2.371,0,0,1,.863.151,2.075,2.075,0,0,1,.615.421,1.859,1.859,0,0,1,.367.637,2.563,2.563,0,0,1,.129.788Zm5.494.583a4.831,4.831,0,0,0-.184-1.306,3.292,3.292,0,0,0-.583-1.166,3.176,3.176,0,0,0-1.036-.831,3.462,3.462,0,0,0-1.533-.313,3.6,3.6,0,0,0-1.425.27,3.409,3.409,0,0,0-1.856,1.91,3.6,3.6,0,0,0-.27,1.425,4.117,4.117,0,0,0,.248,1.425,3.291,3.291,0,0,0,.7,1.133,3.25,3.25,0,0,0,1.112.766,3.783,3.783,0,0,0,1.468.27,3.617,3.617,0,0,0,3.044-1.4l-.993-.745a3.541,3.541,0,0,1-.82.745,1.983,1.983,0,0,1-1.058.281,2.644,2.644,0,0,1-.863-.151,2.288,2.288,0,0,1-.734-.4,2.062,2.062,0,0,1-.518-.626,1.767,1.767,0,0,1-.194-.82h5.494V63.1Zm-11.851-1.662a1.919,1.919,0,0,1,.669-.529,2.066,2.066,0,0,1,.928-.194,2.162,2.162,0,0,1,.95.194,2.794,2.794,0,0,1,.756.572l.982-.9a3.219,3.219,0,0,0-1.187-.82,4.094,4.094,0,0,0-1.446-.27,3.993,3.993,0,0,0-1.468.27,3.517,3.517,0,0,0-1.123.745,3.413,3.413,0,0,0-.734,1.144,4.227,4.227,0,0,0,0,2.914,3.218,3.218,0,0,0,.734,1.123,3.256,3.256,0,0,0,1.144.734,4.189,4.189,0,0,0,2.871.011,2.922,2.922,0,0,0,1.187-.81l-.928-.917a2.52,2.52,0,0,1-.723.572,2.081,2.081,0,0,1-.939.194,2.244,2.244,0,0,1-.917-.183,2.134,2.134,0,0,1-.691-.5,2.379,2.379,0,0,1-.453-.745,2.853,2.853,0,0,1-.151-.907,3.2,3.2,0,0,1,.129-.917,2.49,2.49,0,0,1,.41-.788ZM222.086,60.1a2.191,2.191,0,0,0-.8-.464,3.124,3.124,0,0,0-.95-.151,2.84,2.84,0,0,0-1.4.335,1.945,1.945,0,0,0-.853.9h-.032V59.66h-1.3v6.854h1.3V62.984a3.256,3.256,0,0,1,.151-1.025,1.89,1.89,0,0,1,.4-.712,1.51,1.51,0,0,1,.6-.41,1.96,1.96,0,0,1,.756-.14,1.739,1.739,0,0,1,.583.1,1.353,1.353,0,0,1,.507.3,1.55,1.55,0,0,1,.345.55,2.294,2.294,0,0,1,.13.82v4.047h1.306V62.1a3.228,3.228,0,0,0-.205-1.176,2.36,2.36,0,0,0-.54-.82Zm-8.44,3.551a2.7,2.7,0,0,1-.108.7,1.574,1.574,0,0,1-.335.637,1.67,1.67,0,0,1-.6.475,2.087,2.087,0,0,1-.907.184,1.947,1.947,0,0,1-1.079-.259,1.073,1.073,0,0,1-.151-1.522,1.755,1.755,0,0,1,.658-.41,3.577,3.577,0,0,1,.874-.194c.324-.032.648-.043.95-.043h.7Zm1.209,1.619v-3.5a2.316,2.316,0,0,0-.162-.863,2.028,2.028,0,0,0-.518-.734,2.687,2.687,0,0,0-.885-.507,4.211,4.211,0,0,0-1.3-.183,4.478,4.478,0,0,0-1.446.248,3.559,3.559,0,0,0-1.274.766l.777.809c.119-.086.237-.183.367-.281a1.968,1.968,0,0,1,.421-.248,3.1,3.1,0,0,1,.507-.183,2.984,2.984,0,0,1,.658-.076,1.842,1.842,0,0,1,.723.13,1.3,1.3,0,0,1,.507.335,1.277,1.277,0,0,1,.3.464,1.484,1.484,0,0,1,.108.518v.291h-.961a7.989,7.989,0,0,0-1.468.13,3.913,3.913,0,0,0-1.2.4,2.226,2.226,0,0,0-.809.734,1.983,1.983,0,0,0-.3,1.112,1.911,1.911,0,0,0,.194.885,1.763,1.763,0,0,0,.507.648,2.233,2.233,0,0,0,.766.389,3.458,3.458,0,0,0,2.277-.14,2.508,2.508,0,0,0,1.036-.939h.022c0,.345.022.691.043,1.036h1.166c-.022-.183-.043-.378-.054-.572s-.011-.432-.011-.669Zm-8.332-9.023a.881.881,0,0,0-.669.281.938.938,0,0,0,0,1.338.891.891,0,0,0,.669.291.932.932,0,0,0,.68-.291.95.95,0,0,0-.68-1.619Zm-.648,10.264h1.306V59.66h-1.306Zm-3.475,0h1.306V55.58H202.4Zm-3.281-2.461a2.313,2.313,0,0,1-.443.745,1.972,1.972,0,0,1-.712.5,2.495,2.495,0,0,1-1.878,0,2.052,2.052,0,0,1-1.155-1.241,2.963,2.963,0,0,1,0-1.932,1.983,1.983,0,0,1,.443-.745,2.113,2.113,0,0,1,.712-.5,2.495,2.495,0,0,1,1.878,0,2.113,2.113,0,0,1,.712.5,2.313,2.313,0,0,1,.443.745,2.963,2.963,0,0,1,0,1.932Zm.6-3.529a3.206,3.206,0,0,0-1.1-.766,3.621,3.621,0,0,0-1.435-.27,3.2,3.2,0,0,0-1.36.3,2.6,2.6,0,0,0-1.036.853h-.022V59.66h-1.306V70.593h1.306V65.531h.022a2.421,2.421,0,0,0,1,.842,3.062,3.062,0,0,0,1.392.313,3.621,3.621,0,0,0,1.435-.27,3.207,3.207,0,0,0,1.1-.766,3.29,3.29,0,0,0,.7-1.133,4.112,4.112,0,0,0,.238-1.425,4.051,4.051,0,0,0-.238-1.414A3.49,3.49,0,0,0,199.723,60.523Zm-8.732-.086a2,2,0,0,0-.8-.691,2.821,2.821,0,0,0-1.3-.259,2.67,2.67,0,0,0-1.23.313,2.129,2.129,0,0,0-.939.961,2.409,2.409,0,0,0-.853-.961,2.529,2.529,0,0,0-1.3-.313,2.378,2.378,0,0,0-.842.14,2.753,2.753,0,0,0-.669.324,2.514,2.514,0,0,0-.464.421.943.943,0,0,0-.216.356h-.032V59.66h-1.22v6.854h1.306V62.963a3.2,3.2,0,0,1,.14-1.015,1.928,1.928,0,0,1,.4-.7,1.606,1.606,0,0,1,.561-.41,1.869,1.869,0,0,1,.68-.14,1.5,1.5,0,0,1,.756.173,1,1,0,0,1,.432.464,1.912,1.912,0,0,1,.205.7,7.4,7.4,0,0,1,.054.9v3.583h1.3V62.768a2.555,2.555,0,0,1,.41-1.489,1.529,1.529,0,0,1,1.349-.583,1.578,1.578,0,0,1,.766.173,1.242,1.242,0,0,1,.442.443,1.847,1.847,0,0,1,.216.637,5.521,5.521,0,0,1,.043.745v3.821H191.5V62.52a5.573,5.573,0,0,0-.108-1.122,2.627,2.627,0,0,0-.4-.961Zm-13.027,3.616a2.157,2.157,0,0,1-.453.745,1.971,1.971,0,0,1-.712.5,2.495,2.495,0,0,1-1.878,0,1.971,1.971,0,0,1-.712-.5,2.311,2.311,0,0,1-.442-.745,2.962,2.962,0,0,1,0-1.932,2.312,2.312,0,0,1,.442-.745,2.112,2.112,0,0,1,.712-.5,2.494,2.494,0,0,1,1.878,0,2.113,2.113,0,0,1,.712.5,2.157,2.157,0,0,1,.453.745,3.163,3.163,0,0,1,0,1.932Zm.486-3.508a3.406,3.406,0,0,0-1.155-.777,3.784,3.784,0,0,0-2.86,0,3.45,3.45,0,0,0-1.166.777,3.5,3.5,0,0,0-.766,1.144,3.361,3.361,0,0,0-.281,1.4,3.4,3.4,0,0,0,.281,1.4,3.5,3.5,0,0,0,.766,1.144,3.589,3.589,0,0,0,1.166.766,3.784,3.784,0,0,0,2.86,0,3.541,3.541,0,0,0,1.155-.766,3.7,3.7,0,0,0,.777-1.144,3.579,3.579,0,0,0,.281-1.4,3.54,3.54,0,0,0-.281-1.4A3.7,3.7,0,0,0,178.449,60.545Zm-9.541,4.566a3.123,3.123,0,0,1-1.554.367,3.856,3.856,0,0,1-1.608-.324,3.55,3.55,0,0,1-1.2-.863,3.848,3.848,0,0,1-.745-1.274,4.533,4.533,0,0,1-.27-1.533,4.742,4.742,0,0,1,.281-1.63,4.064,4.064,0,0,1,.777-1.328,3.539,3.539,0,0,1,1.2-.885,3.691,3.691,0,0,1,1.565-.324,3.291,3.291,0,0,1,1.382.3,2.877,2.877,0,0,1,1.09.863l1.166-.874a3.867,3.867,0,0,0-1.6-1.209,5.386,5.386,0,0,0-2-.389,5.669,5.669,0,0,0-2.169.41,4.827,4.827,0,0,0-1.684,1.133,5.221,5.221,0,0,0-1.09,1.738,6.032,6.032,0,0,0-.389,2.191,5.347,5.347,0,0,0,.356,1.91,5.547,5.547,0,0,0,1.047,1.705,5.285,5.285,0,0,0,1.673,1.209,4.98,4.98,0,0,0,2.191.464,5.25,5.25,0,0,0,1.554-.216,5.127,5.127,0,0,0,1.144-.529,3.559,3.559,0,0,0,.766-.594,4.016,4.016,0,0,0,.41-.453l-1.177-.885A3.144,3.144,0,0,1,168.908,65.11ZM155.74,59.584a2.021,2.021,0,0,0-.583.248,2.135,2.135,0,0,0-.486.389,1.778,1.778,0,0,0-.345.5h-.032V59.66h-1.306v6.854h1.306V63.07a2.374,2.374,0,0,1,.507-1.662,1.9,1.9,0,0,1,1.457-.529,1.634,1.634,0,0,1,.324.022c.108.022.205.043.313.076l.065-1.4a1.944,1.944,0,0,0-.583-.086,2.172,2.172,0,0,0-.637.1Zm-5.925,4.468a2.157,2.157,0,0,1-.453.745,1.971,1.971,0,0,1-.712.5,2.312,2.312,0,0,1-.939.183,2.388,2.388,0,0,1-.939-.183,1.843,1.843,0,0,1-.7-.5,2.157,2.157,0,0,1-.453-.745,2.963,2.963,0,0,1,0-1.932,2.157,2.157,0,0,1,.453-.745,1.968,1.968,0,0,1,.7-.5,2.388,2.388,0,0,1,.939-.183,2.312,2.312,0,0,1,.939.183,2.113,2.113,0,0,1,.712.5,2.158,2.158,0,0,1,.453.745,3.163,3.163,0,0,1,0,1.932Zm.486-3.508a3.406,3.406,0,0,0-1.155-.777,3.784,3.784,0,0,0-2.86,0,3.559,3.559,0,0,0-1.166.777,3.494,3.494,0,0,0-.766,1.144,3.361,3.361,0,0,0-.281,1.4,3.4,3.4,0,0,0,.281,1.4,3.494,3.494,0,0,0,.766,1.144,3.706,3.706,0,0,0,1.166.766,3.784,3.784,0,0,0,2.86,0,3.541,3.541,0,0,0,1.155-.766,3.361,3.361,0,0,0,.777-1.144,3.578,3.578,0,0,0,.281-1.4,3.54,3.54,0,0,0-.281-1.4A3.362,3.362,0,0,0,150.3,60.545Zm-8.462,4.933a1.038,1.038,0,0,1-.572-.14.784.784,0,0,1-.281-.367,1.2,1.2,0,0,1-.108-.5c-.011-.194-.022-.389-.022-.572V60.782h1.867V59.66h-1.867V57.739h-1.3V59.66H138.05v1.122h1.511v3.583c0,.27.011.55.032.831a1.765,1.765,0,0,0,.227.745,1.451,1.451,0,0,0,.615.54,2.593,2.593,0,0,0,1.166.205,4.314,4.314,0,0,0,.561-.043,1.908,1.908,0,0,0,.6-.183V65.272a1.44,1.44,0,0,1-.442.162,3.861,3.861,0,0,1-.486.043Zm-5.5-9.228a.946.946,0,0,0-.68,1.619.932.932,0,0,0,.68.291.891.891,0,0,0,.669-.291.938.938,0,0,0,0-1.338A.881.881,0,0,0,136.334,56.249Zm-.658,10.264h1.306V59.66h-1.306ZM132.87,60.1a2.192,2.192,0,0,0-.8-.464,3.07,3.07,0,0,0-.95-.151,2.84,2.84,0,0,0-1.4.335,1.945,1.945,0,0,0-.853.9h-.022V59.66h-1.306v6.854h1.306V62.984a3.271,3.271,0,0,1,.14-1.025,1.89,1.89,0,0,1,.4-.712,1.544,1.544,0,0,1,.615-.41,1.869,1.869,0,0,1,.745-.14,1.85,1.85,0,0,1,.594.1,1.4,1.4,0,0,1,.5.3,1.55,1.55,0,0,1,.345.55,2.3,2.3,0,0,1,.13.82v4.047h1.306V62.1a3.229,3.229,0,0,0-.205-1.176,2.361,2.361,0,0,0-.54-.82Zm-8.516,3.95a2.312,2.312,0,0,1-.443.745,1.971,1.971,0,0,1-.712.5,2.495,2.495,0,0,1-1.878,0,1.971,1.971,0,0,1-.712-.5,2.156,2.156,0,0,1-.453-.745,3.163,3.163,0,0,1,0-1.932,2.156,2.156,0,0,1,.453-.745,2.112,2.112,0,0,1,.712-.5,2.495,2.495,0,0,1,1.878,0,2.112,2.112,0,0,1,.712.5,2.312,2.312,0,0,1,.443.745,2.962,2.962,0,0,1,0,1.932Zm.5-3.508a3.45,3.45,0,0,0-1.166-.777,3.784,3.784,0,0,0-2.86,0,3.406,3.406,0,0,0-1.155.777,3.548,3.548,0,0,0-1.058,2.547,3.579,3.579,0,0,0,.281,1.4,3.7,3.7,0,0,0,4.792,1.91,3.589,3.589,0,0,0,1.166-.766,3.5,3.5,0,0,0,.766-1.144,3.4,3.4,0,0,0,.281-1.4,3.362,3.362,0,0,0-.281-1.4A3.5,3.5,0,0,0,124.85,60.545Zm-13.394,3.486h-.065l-3.249-7.76H106.07V66.513h1.392V58.095h.032l3.454,8.419h.928l3.454-8.419h.032v8.419h1.382V56.271h-2.061Z" transform="translate(8.414 4.409)" fill="#9a9b9c" fill-rule="evenodd"/>
  <path id="Path_22" data-name="Path 22" d="M96.105,41.555a12.319,12.319,0,0,0-.291-1.77,9.448,9.448,0,0,0-.68-1.856,5.758,5.758,0,0,0-1.252-1.673,8.188,8.188,0,0,0-2.029-1.349,21.131,21.131,0,0,0-2.968-1.155L76.073,29.7A4.542,4.542,0,0,1,73.4,27.955a4.588,4.588,0,0,1-.572-2.2,8.623,8.623,0,0,1,.13-1.306,2.317,2.317,0,0,1,.766-1.392,2.617,2.617,0,0,1,1.328-.68,8.132,8.132,0,0,1,1.425-.13H94.378V17H74.228a13.894,13.894,0,0,0-2.849.324,5.858,5.858,0,0,0-2.9,1.63A5.919,5.919,0,0,0,66.6,22.105a16.06,16.06,0,0,0-.378,3.346c0,.5.022,1.036.054,1.6a10.741,10.741,0,0,0,.248,1.727,10.03,10.03,0,0,0,.55,1.727,5.725,5.725,0,0,0,.95,1.554,5.076,5.076,0,0,0,1.155,1.1,12.755,12.755,0,0,0,1.241.777,9.815,9.815,0,0,0,1.079.5,6.028,6.028,0,0,0,.68.227l13.8,4.35a6.412,6.412,0,0,1,1.824.831,3.93,3.93,0,0,1,1.025.993,2.823,2.823,0,0,1,.453,1.079,6,6,0,0,1,.1,1.047,8.958,8.958,0,0,1-.076,1.1,3.539,3.539,0,0,1-.4,1.252,2.831,2.831,0,0,1-.971,1.025,3.452,3.452,0,0,1-1.856.421H66.672v5.256H88.183a13.594,13.594,0,0,0,3.346-.4,5.36,5.36,0,0,0,2.9-2.1,7.093,7.093,0,0,0,1.425-3.119,18.34,18.34,0,0,0,.324-3.378c0-.4-.022-.885-.076-1.457Zm-40.993-10.2H36.9V17H30.31V52.013H36.9v-15.4H55.113v15.4h6.605V17H55.113V31.355Z" transform="translate(2.404 1.348)" fill="#9a9b9c" fill-rule="evenodd"/>
  <path id="Path_23" data-name="Path 23" d="M238.635,30.138a7.066,7.066,0,0,0-5.31-4.177,21.148,21.148,0,0,0-4.123-.367h-7.955V15.88l-5.8,3.044L215.4,52.1h5.85V30.095H228.1a11.262,11.262,0,0,1,2.051.227,4.029,4.029,0,0,1,2.2,1.317,3.835,3.835,0,0,1,.7,1.133,8.871,8.871,0,0,1,.4,1.252,5.935,5.935,0,0,1,.173,1.2c.022.378.022.712.022.971V52.1h5.861V34.649a10.149,10.149,0,0,0-.874-4.512ZM200.718,47.526a7.631,7.631,0,0,1-1.878-.378,5.711,5.711,0,0,1-1.651-.853,4.332,4.332,0,0,1-1.252-1.5,5.328,5.328,0,0,1-.421-1.22,13.723,13.723,0,0,1-.281-1.479,13.862,13.862,0,0,1-.119-1.479c-.022-.475-.032-.917-.032-1.317,0-.205.011-.507.032-.928s.032-.863.043-1.349.065-.971.129-1.457a10.67,10.67,0,0,1,.248-1.274,5.9,5.9,0,0,1,2.029-2.947,6.862,6.862,0,0,1,4.479-1.252h9.444v-4.5H200.136a13.949,13.949,0,0,0-3.119.3,12.584,12.584,0,0,0-2.3.723,7.825,7.825,0,0,0-1.63.917,9.9,9.9,0,0,0-1.047.907,8.62,8.62,0,0,0-1.705,2.526,14.044,14.044,0,0,0-.9,2.8,16.22,16.22,0,0,0-.356,2.828c-.032.939-.043,1.8-.043,2.6a34.922,34.922,0,0,0,.367,5.278,8.755,8.755,0,0,0,2.029,4.382,8.253,8.253,0,0,0,1.975,1.695,10.215,10.215,0,0,0,2.126,1,9.121,9.121,0,0,0,2.051.453q1,.1,1.749.1h12.758V47.6h-9.5c-.6,0-1.23-.022-1.878-.076Zm-16.611-.076a4.247,4.247,0,0,1-2.374-1,3.13,3.13,0,0,1-.971-1.22,5.831,5.831,0,0,1-.453-1.479,8.805,8.805,0,0,1-.13-1.5V30.095h7.4v-4.5h-7.4V17.089h-5.85v8.505h-3.648v4.5h3.648V43.446a10.305,10.305,0,0,0,.68,4.1,6.613,6.613,0,0,0,1.975,2.6,8.194,8.194,0,0,0,2.817,1.479,15.6,15.6,0,0,0,4.285.475h3.648V47.6h-1.446c-.54,0-1.263-.054-2.18-.151ZM162.823,46.2a2.4,2.4,0,0,1-.054.572.874.874,0,0,1-.345.529,1.156,1.156,0,0,1-.68.281c-.248.011-.453.022-.615.022h-8.16a2.581,2.581,0,0,1-1.079-.248,3.381,3.381,0,0,1-.82-.55,2.492,2.492,0,0,1-.68-1.457,12.467,12.467,0,0,1-.119-1.5,6.043,6.043,0,0,1,.248-2.051,4.378,4.378,0,0,1,.4-.8,1.936,1.936,0,0,1,1.176-.777,7.031,7.031,0,0,1,.971-.119h9.757v6.1Zm3.907-18.554a6.263,6.263,0,0,0-2.353-1.5,8.831,8.831,0,0,0-3.152-.55H146.169v4.5h13.049a6.056,6.056,0,0,1,1.479.194,2.659,2.659,0,0,1,1.381.95,2.775,2.775,0,0,1,.615,1.252,6.409,6.409,0,0,1,.13,1.252V35.6H151.318a13.244,13.244,0,0,0-2.321.227,5.12,5.12,0,0,0-2.526,1.317,5.508,5.508,0,0,0-1.878,3,16.127,16.127,0,0,0-.378,3.454c0,.507.022,1.069.054,1.705a11.345,11.345,0,0,0,.27,1.943,8.288,8.288,0,0,0,.7,1.932,5.609,5.609,0,0,0,1.274,1.63,4.505,4.505,0,0,0,2.428,1.144,21.091,21.091,0,0,0,2.375.151h12.66a11.007,11.007,0,0,0,1.943-.173,3.125,3.125,0,0,0,2.58-2.58,9.868,9.868,0,0,0,.173-1.695V33.894a11.623,11.623,0,0,0-.55-3.821,6.317,6.317,0,0,0-1.392-2.428ZM137.718,17.089,130.757,44.05a1.525,1.525,0,0,1-.4.853.735.735,0,0,1-.4.194.539.539,0,0,1-.443-.3,2.354,2.354,0,0,1-.3-.55l-6.508-23.961a6.034,6.034,0,0,0-.453-1.22,3.862,3.862,0,0,0-.842-1.155,4.713,4.713,0,0,0-1.4-.874,5.849,5.849,0,0,0-2.148-.345,5.663,5.663,0,0,0-2.277.378,4.114,4.114,0,0,0-1.4.917,3.974,3.974,0,0,0-.777,1.176c-.162.421-.3.8-.4,1.122l-6.5,23.961a3.559,3.559,0,0,1-.3.55.568.568,0,0,1-.453.3.51.51,0,0,1-.529-.4A6.421,6.421,0,0,0,105,44.05L98.043,17.089h-6.7L99.748,47.6a6.823,6.823,0,0,0,2.2,3.9,5.827,5.827,0,0,0,3.5,1,6.417,6.417,0,0,0,2.526-.421,4.294,4.294,0,0,0,1.576-1.1,5.282,5.282,0,0,0,.928-1.457A12.765,12.765,0,0,0,111.005,48l6.2-22.655c.076-.173.14-.367.227-.6a.439.439,0,0,1,.432-.345c.291,0,.529.313.7.95L124.713,48a10.633,10.633,0,0,0,.615,1.705,5.487,5.487,0,0,0,1,1.425,4.628,4.628,0,0,0,1.576.993,6.436,6.436,0,0,0,2.407.378,6.078,6.078,0,0,0,2.526-.453,4.709,4.709,0,0,0,2.547-2.72c.216-.583.41-1.166.572-1.727l8.462-30.512h-6.7Z" transform="translate(7.245 1.26)" fill="#0e7cc6" fill-rule="evenodd"/>
  <path id="Path_24" data-name="Path 24" d="M233.892,20.7a2.088,2.088,0,0,0-1.457-1.457c-2.623.022-5.353-.065-7.911.043a1.357,1.357,0,0,0-.788.626,2.249,2.249,0,0,0-.043.917,2.642,2.642,0,0,0,.712.917c2.277,2.2,4.587,4.587,6.811,6.821.4.389.831.863,1.3.917a1.153,1.153,0,0,0,1.338-.842C233.946,26.084,233.87,23.332,233.892,20.7Z" transform="translate(17.741 1.525)" fill="#0e7cc6"/>
  <path id="Path_25" data-name="Path 25" d="M201.08,16.879l3.432,2.526a39.568,39.568,0,0,1,15.542-8.98,29.258,29.258,0,0,1,3-.7l.432-8.073A53.728,53.728,0,0,0,201.08,16.879Z" transform="translate(15.95 0.131)" fill="#ee3539"/>
  <path id="Path_26" data-name="Path 26" d="M225.078.939,224.56,9.66a18.774,18.774,0,0,1,13.308,4.317l8.645-10.318A24.542,24.542,0,0,0,233.767,0h-1.49a35.142,35.142,0,0,0-7.2.939Z" transform="translate(17.812 0)" fill="#f79835"/>
  <path id="Path_27" data-name="Path 27" d="M248.011,5.42,238.61,15.8a19.316,19.316,0,0,1,3.367,12.034L255.1,24.664c.335-7.62-1.986-14.506-7.091-19.244Z" transform="translate(18.927 0.43)" fill="#8fc74c"/>
  <path id="Path_28" data-name="Path 28" d="M9.336,46.226a10.151,10.151,0,0,1-1.371-.076,1.483,1.483,0,0,1-.874-.367,1.579,1.579,0,0,1-.5-1.328V36.415H27.328V31.255L0,31.234V46.28a11.144,11.144,0,0,0,.205,2.083A3.409,3.409,0,0,0,1.3,50.295a3.2,3.2,0,0,0,1.856.961,16.731,16.731,0,0,0,2.148.119H28.03V46.226Zm18.489-29.2H5.4a13.247,13.247,0,0,0-2.169.194A3.484,3.484,0,0,0,1.2,18.347a4.819,4.819,0,0,0-.874,1.6A6.176,6.176,0,0,0,0,21.93v.216l27.825.032V17.03Z" transform="translate(0 1.351)" fill="#9a9b9c"/>
</svg>
