<svg xmlns="http://www.w3.org/2000/svg" width="16" height="10.909" viewBox="0 0 16 10.909">
  <path id="visibility_FILL0_wght400_GRAD0_opsz48" d="M10,16.545a3.073,3.073,0,0,0,3.091-3.091A3.073,3.073,0,0,0,10,10.364a3.073,3.073,0,0,0-3.091,3.091A3.073,3.073,0,0,0,10,16.545Zm0-1.055a2.044,2.044,0,0,1-1.445-3.482,2.063,2.063,0,0,1,2.891,0A2.036,2.036,0,0,1,10,15.491Zm0,3.418A8.149,8.149,0,0,1,5.2,17.4,9.193,9.193,0,0,1,2,13.455,9.193,9.193,0,0,1,5.2,9.509,8.149,8.149,0,0,1,10,8a8.149,8.149,0,0,1,4.8,1.509A9.194,9.194,0,0,1,18,13.455,9.193,9.193,0,0,1,14.8,17.4,8.149,8.149,0,0,1,10,18.909ZM10,13.455Zm0,4.364a7.312,7.312,0,0,0,4.045-1.191,7.728,7.728,0,0,0,2.809-3.173,7.728,7.728,0,0,0-2.809-3.173,7.467,7.467,0,0,0-8.091,0,7.858,7.858,0,0,0-2.827,3.173,7.858,7.858,0,0,0,2.827,3.173A7.312,7.312,0,0,0,10,17.818Z" transform="translate(-2 -8)" fill="#101010"/>
</svg>
